<mxfile host="app.diagrams.net" agent="Mozilla/5.0 (Windows NT 10.0; Win64; x64) AppleWebKit/537.36 (KHTML, like Gecko) Chrome/130.0.0.0 Safari/537.36" version="26.0.2">
  <diagram name="Trang-1" id="ihAKvBe-pyPv0XzfjZn0">
    <mxGraphModel dx="1390" dy="747" grid="1" gridSize="10" guides="1" tooltips="1" connect="1" arrows="1" fold="1" page="1" pageScale="1" pageWidth="827" pageHeight="1169" math="0" shadow="0">
      <root>
        <mxCell id="0" />
        <mxCell id="1" parent="0" />
        <mxCell id="vh7e7-5-Zw_NVdCq54c1-1" value="&lt;font size=&quot;3&quot;&gt;Router&lt;/font&gt;" style="rounded=1;whiteSpace=wrap;html=1;" vertex="1" parent="1">
          <mxGeometry x="360" y="80" width="120" height="60" as="geometry" />
        </mxCell>
        <mxCell id="vh7e7-5-Zw_NVdCq54c1-2" value="&lt;font size=&quot;3&quot;&gt;Controller&lt;/font&gt;" style="rounded=1;whiteSpace=wrap;html=1;" vertex="1" parent="1">
          <mxGeometry x="360" y="200" width="120" height="60" as="geometry" />
        </mxCell>
        <mxCell id="vh7e7-5-Zw_NVdCq54c1-3" value="&lt;font size=&quot;3&quot;&gt;Service&lt;/font&gt;" style="rounded=1;whiteSpace=wrap;html=1;" vertex="1" parent="1">
          <mxGeometry x="360" y="440" width="120" height="60" as="geometry" />
        </mxCell>
        <mxCell id="vh7e7-5-Zw_NVdCq54c1-4" value="&lt;font size=&quot;3&quot;&gt;Repository&lt;/font&gt;" style="rounded=1;whiteSpace=wrap;html=1;" vertex="1" parent="1">
          <mxGeometry x="360" y="320" width="120" height="60" as="geometry" />
        </mxCell>
        <mxCell id="vh7e7-5-Zw_NVdCq54c1-5" value="&lt;font size=&quot;3&quot;&gt;Queries&lt;/font&gt;" style="rounded=1;whiteSpace=wrap;html=1;" vertex="1" parent="1">
          <mxGeometry x="360" y="560" width="120" height="60" as="geometry" />
        </mxCell>
        <mxCell id="vh7e7-5-Zw_NVdCq54c1-6" value="" style="shape=flexArrow;endArrow=classic;html=1;rounded=0;entryX=0.5;entryY=0;entryDx=0;entryDy=0;exitX=0.5;exitY=1;exitDx=0;exitDy=0;" edge="1" parent="1" source="vh7e7-5-Zw_NVdCq54c1-1" target="vh7e7-5-Zw_NVdCq54c1-2">
          <mxGeometry width="50" height="50" relative="1" as="geometry">
            <mxPoint x="590" y="430" as="sourcePoint" />
            <mxPoint x="640" y="380" as="targetPoint" />
          </mxGeometry>
        </mxCell>
        <mxCell id="vh7e7-5-Zw_NVdCq54c1-7" value="" style="shape=flexArrow;endArrow=classic;html=1;rounded=0;entryX=0.5;entryY=0;entryDx=0;entryDy=0;exitX=0.5;exitY=1;exitDx=0;exitDy=0;" edge="1" parent="1">
          <mxGeometry width="50" height="50" relative="1" as="geometry">
            <mxPoint x="419.5" y="260" as="sourcePoint" />
            <mxPoint x="419.5" y="320" as="targetPoint" />
          </mxGeometry>
        </mxCell>
        <mxCell id="vh7e7-5-Zw_NVdCq54c1-8" value="" style="shape=flexArrow;endArrow=classic;html=1;rounded=0;entryX=0.5;entryY=0;entryDx=0;entryDy=0;exitX=0.5;exitY=1;exitDx=0;exitDy=0;" edge="1" parent="1">
          <mxGeometry width="50" height="50" relative="1" as="geometry">
            <mxPoint x="419.5" y="380" as="sourcePoint" />
            <mxPoint x="419.5" y="440" as="targetPoint" />
          </mxGeometry>
        </mxCell>
        <mxCell id="vh7e7-5-Zw_NVdCq54c1-9" value="" style="shape=flexArrow;endArrow=classic;html=1;rounded=0;entryX=0.5;entryY=0;entryDx=0;entryDy=0;exitX=0.5;exitY=1;exitDx=0;exitDy=0;" edge="1" parent="1">
          <mxGeometry width="50" height="50" relative="1" as="geometry">
            <mxPoint x="419.5" y="500" as="sourcePoint" />
            <mxPoint x="419.5" y="560" as="targetPoint" />
          </mxGeometry>
        </mxCell>
        <mxCell id="vh7e7-5-Zw_NVdCq54c1-10" value="Router {&amp;nbsp;&lt;div&gt;*controller&lt;/div&gt;&lt;div&gt;}&lt;/div&gt;" style="ellipse;whiteSpace=wrap;html=1;" vertex="1" parent="1">
          <mxGeometry x="550" y="130" width="120" height="80" as="geometry" />
        </mxCell>
      </root>
    </mxGraphModel>
  </diagram>
</mxfile>
